<svg xmlns="http://www.w3.org/2000/svg" xmlns:xlink="http://www.w3.org/1999/xlink" viewBox="0,0,256,256" width="48px" height="48px" fill-rule="nonzero"><defs><linearGradient x1="32" y1="6" x2="32" y2="58" gradientUnits="userSpaceOnUse" id="color-1"><stop offset="0" stop-color="#dadada"></stop><stop offset="1" stop-color="#808080"></stop></linearGradient><linearGradient x1="31.03" y1="16" x2="31.03" y2="48" gradientUnits="userSpaceOnUse" id="color-2"><stop offset="0" stop-color="#ebebeb"></stop><stop offset="1" stop-color="#b8b8b8"></stop></linearGradient></defs><g fill="none" fill-rule="nonzero" stroke="none" stroke-width="none" stroke-linecap="butt" stroke-linejoin="miter" stroke-miterlimit="10" stroke-dasharray="" stroke-dashoffset="0" font-family="none" font-weight="none" font-size="none" text-anchor="none" style="mix-blend-mode: normal"><g transform="scale(4,4)"><path d="M32,7c-13.80712,0 -25,11.19288 -25,25c0,13.80712 11.19288,25 25,25c13.80712,0 25,-11.19288 25,-25c0,-13.80712 -11.19288,-25 -25,-25z" fill="none" stroke="url(#color-1)" stroke-width="2"></path><path d="M13.125,36c-0.961,-7.967 8.851,-17.938 17.349,-20c0,0 -3.474,2.449 -3.474,4.525c0,4.154 1.971,2.745 1.971,2.745c0,0 0.039,14.986 0.039,16.057c0,1.071 0.985,1.673 2.365,1.673c1.38,0 4.625,-1.75 4.625,-1.75c0,0 0,-11.903 0,-13.375c0,-1.472 -1.644,-2.822 -2.438,-3.515c2.123,0 3.088,0.737 3.088,0.737c0,0 2.756,-3.643 9.919,-5.557c-1.088,1.411 -4.569,5.687 -4.569,6.96c0,1.273 0,13.763 0,14.5c0,0.737 0.849,1 1.375,1c0.526,0 2.904,-0.691 5.625,-3.75c0,0.93 -3.632,7.118 -9.131,10.746l-3.619,-2.996l-3.739,4c0,0 -9.261,-0.5 -12.511,-6c0.967,0.146 3,0.54 3,-1c0,-1.54 0,-11.495 0,-12.5c0,-1.005 -0.521,-1.5 -1.375,-1.5c-0.854,0.001 -3.878,0.685 -8.5,9z" fill="url(#color-2)" stroke="none" stroke-width="1"></path></g></g></svg>